<!DOCTYPE svg PUBLIC "-//W3C//DTD SVG 1.1//EN" "http://www.w3.org/Graphics/SVG/1.1/DTD/svg11.dtd">
<!-- Uploaded to: SVG Repo, www.svgrepo.com, Transformed by: SVG Repo Mixer Tools -->
<svg width="800px" height="800px" viewBox="0 0 16.00 16.00" version="1.1" xmlns="http://www.w3.org/2000/svg" xmlns:xlink="http://www.w3.org/1999/xlink" class="si-glyph si-glyph-triangle-double-arrow-right" fill="#000000" transform="matrix(-1, 0, 0, 1, 0, 0)">
<g id="SVGRepo_bgCarrier" stroke-width="0"/>
<g id="SVGRepo_tracerCarrier" stroke-linecap="round" stroke-linejoin="round" stroke="#CCCCCC" stroke-width="0.096"/>
<g id="SVGRepo_iconCarrier"> <title>1222</title> <defs> </defs> <g stroke-width="0.00016" fill="none" fill-rule="evenodd"> <g fill="#000000"> <path d="M9.113,15.495 C8.531,16.076 7.01,16.395 7.01,14.494 L7.01,1.506 C7.01,-0.333 8.531,-0.076 9.113,0.506 L15.557,6.948 C16.137,7.529 16.137,8.47 15.557,9.052 L9.113,15.495 L9.113,15.495 Z" class="si-glyph-fill"> </path> <path d="M2.113,15.495 C1.531,16.076 0.01,16.395 0.01,14.494 L0.01,1.506 C0.01,-0.333 1.531,-0.076 2.113,0.506 L8.557,6.948 C9.137,7.529 9.137,8.47 8.557,9.052 L2.113,15.495 L2.113,15.495 Z" class="si-glyph-fill"> </path> </g> </g> </g>
</svg>