<!DOCTYPE svg PUBLIC "-//W3C//DTD SVG 1.1//EN" "http://www.w3.org/Graphics/SVG/1.1/DTD/svg11.dtd">
<!-- Uploaded to: SVG Repo, www.svgrepo.com, Transformed by: SVG Repo Mixer Tools -->
<svg fill="#ffffff" height="800px" width="800px" version="1.1" id="Layer_1" xmlns="http://www.w3.org/2000/svg" xmlns:xlink="http://www.w3.org/1999/xlink" viewBox="0 0 512 512" xml:space="preserve" stroke="#ffffff">
<g id="SVGRepo_bgCarrier" stroke-width="0"/>
<g id="SVGRepo_tracerCarrier" stroke-linecap="round" stroke-linejoin="round"/>
<g id="SVGRepo_iconCarrier"> <g> <g> <path d="M448.998,193.73h-83.156L251.057,20.757h-71.165l28.695,172.973h-103.42l-33.211-27.676H0L35.978,256v0.003L0,345.946 h71.957l33.211-27.676h103.418l-28.694,172.973h71.165L365.841,318.27h83.156C483.793,318.27,512,290.393,512,256 S483.793,193.73,448.998,193.73z M316.019,193.73h-65.351L228.885,62.424L316.019,193.73z M228.885,449.576l21.784-131.306h65.351 L228.885,449.576z M448.998,276.757h-343.83H90.138l-11.546,9.621l-15.08,12.568l11.012-27.529L80.69,256l-6.168-15.418 L63.51,213.053l15.081,12.568l11.548,9.623h15.029h343.829c11.849,0,21.489,9.312,21.489,20.757 C470.485,267.445,460.847,276.757,448.998,276.757z"/> </g> </g> </g>
</svg>